<?xml version="1.0" encoding="UTF-8"?>
<svg width="128" height="128" viewBox="0 0 128 128" xmlns="http://www.w3.org/2000/svg">
  <rect width="128" height="128" fill="#3498db" rx="24"/>
  <path d="M64 20C45.2 20 30 35.2 30 54c0 10.8 5 20.4 12.8 26.8-1.6 3.2-2.8 6.8-2.8 10.4 0 9.2 7.6 16.8 16.8 16.8h14.4c9.2 0 16.8-7.6 16.8-16.8 0-3.6-1.2-7.2-2.8-10.4C92.9 74.4 98 64.8 98 54c0-18.8-15.2-34-34-34zm0 8c14.4 0 26 11.6 26 26 0 8.8-4.4 16.8-11.2 21.6-2 1.2-2.8 3.6-2 5.6 1.6 3.6 2.4 7.2 2.4 11.2 0 4.8-3.9 8.8-8.8 8.8H57.6c-4.8 0-8.8-4-8.8-8.8 0-4 .8-7.6 2.4-11.2.8-2 0-4.4-2-5.6C42.4 70.8 38 62.8 38 54c0-14.4 11.6-26 26-26z" fill="white"/>
</svg> 